<?xml version="1.0" encoding="UTF-8"?>
<!DOCTYPE svg PUBLIC "-//W3C//DTD SVG 1.1//EN" "http://www.w3.org/Graphics/SVG/1.1/DTD/svg11.dtd">
<svg version="1.1" xmlns="http://www.w3.org/2000/svg" xmlns:xlink="http://www.w3.org/1999/xlink" x="0" y="0" width="812" height="1002" viewBox="0, 0, 812, 1002">
  <defs>
    <clipPath id="Clip_1">
      <path d="M0.06,0.5 L811.993,0.5 L811.993,1001.94 L0.06,1001.94 z"/>
    </clipPath>
  </defs>
  <g id="Layer_1">
    <g clip-path="url(#Clip_1)">
      <path d="M589.959,611.48 C589.568,615.768 589.097,620.048 588.537,625.541 C585.075,618.639 582.157,612.753 579.168,606.903 C578.341,605.286 579.042,604.502 580.402,603.811 C583.618,602.175 586.81,600.491 590.472,598.588 C591.301,603.194 590.338,607.337 589.959,611.48 z M809.116,523.291 C801.37,482.259 780.827,448.682 749.67,421.479 C744.871,417.289 743.957,413.336 744.835,407.839 C745.174,405.711 746.51,404.256 747.503,402.58 C753.208,392.948 757.607,382.749 760.865,372.061 C769.417,344.01 771.31,315.229 769.988,286.137 C768.79,259.777 765.346,233.705 757.057,208.582 C735.954,144.623 696.297,94.5 639.835,58.617 C547.105,-0.315 446.895,-13.043 341.011,14.162 C334.887,15.735 329.656,19.588 323.673,20.871 C291.2,27.838 259.913,37.558 230.517,53.664 C171.568,85.961 132.352,134.466 111.051,197.494 C90.061,259.603 91.441,321.116 120.25,380.908 C125.004,390.775 130.904,400.057 129.505,411.706 C129.311,413.318 129.777,415.014 129.973,416.667 C132.704,439.792 147.513,454.535 170.504,457.029 C176.153,457.642 178.978,460.271 180.713,466.108 C189.665,496.232 203.289,523.98 223.216,548.414 C225.781,551.559 226.064,552.73 222.242,555.124 C194.137,572.728 172.513,596.148 160.031,627.197 C143.91,667.297 146.848,707.622 159.616,747.87 C160.592,750.947 161.14,752.418 157.319,754.01 C149.028,757.464 144.983,764.261 144.792,773.295 C144.625,781.212 147.368,788.313 151.039,795.092 C159.678,811.041 174.841,816.151 191.226,808.457 C193.988,807.16 195.322,807.372 197.37,809.576 C207.764,820.768 219.63,830.19 233.424,836.802 C238.106,839.047 240.167,842.184 241.662,846.867 C254.729,887.798 282.049,916.796 319.341,936.477 C332.462,943.401 344.935,950.949 356.74,959.796 C362.982,964.474 370.319,967.404 374.818,974.715 C377.925,979.764 384.403,981.606 390.228,983.299 C391.573,983.69 392.905,983.564 392.628,986.016 C391.734,993.95 394.519,998.369 402.341,1000.293 C414.961,1003.4 427.437,1002.2 439.489,997.274 C459.039,989.287 477.111,978.312 496.043,969.062 C512.347,961.096 527.046,950.276 541.001,938.617 C580.334,905.757 606.948,865.066 617.086,814.333 C618.557,806.97 619.648,799.532 621.061,791.278 C629.315,804.12 638.46,815.055 648.488,825.331 C652.495,829.438 656.447,830.96 661.739,828.809 C665.283,825.859 666.037,822.401 663.99,818.367 C662.993,816.404 661.467,814.85 659.903,813.354 C649.481,803.383 641,791.872 633.244,779.788 C627.264,770.471 622.57,760.877 622.18,749.309 C621.349,724.7 615.891,700.858 609.108,677.258 C606.693,668.856 602.406,660.839 603.2,651.633 C603.487,648.315 604.217,645.061 604.248,641.707 C604.397,626.025 606.744,610.551 608.649,595.029 C609.287,589.831 611.683,586.321 615.779,583.121 C633.599,569.199 649.167,553.098 661.847,534.275 C676.118,513.091 686.628,490.178 693.522,465.621 C694.753,461.236 696.556,459.072 701.553,458.694 C712.344,457.878 722.491,454.753 730.622,446.991 C733.615,444.731 735.68,441.68 737.509,438.516 C739.254,435.498 740.71,434.926 743.514,437.614 C767.261,460.374 784.193,487.096 791.73,519.4 C795.274,534.588 796.622,549.964 795.241,565.481 C792.809,592.809 780.744,616.033 764.07,637.233 C752.029,652.543 738.638,666.68 725.9,681.384 C718.491,689.937 712.008,699.222 704.694,707.836 C703.045,710.903 701.131,713.809 699.276,716.76 C689.384,732.491 682.063,749.305 678.149,767.548 C673.575,788.868 674.407,810.471 674.605,832.043 C674.63,834.74 675.599,837.246 676.677,839.69 C677.272,847.104 679.69,850.043 684.915,849.708 C689.781,849.396 691.978,845.994 691.727,839.047 C691.493,832.562 691.092,826.08 690.959,819.593 C690.56,800.244 691.111,780.97 696.517,762.185 C703.666,737.348 717.915,716.598 734.178,697.02 C749.285,678.833 765.838,661.895 780.222,643.073 C807.52,607.354 817.484,567.61 809.116,523.291" fill="#6E4100"/>
      <path d="M705.966,707.662 C705.386,711.089 702.995,713.501 701.228,716.289 C687.232,738.373 678.536,762.202 676.703,788.503 C675.511,805.595 675.899,822.631 676.677,839.692 C671.919,835.76 665.839,833.647 661.741,828.809 C665.227,822.056 664.99,820.311 659.46,814.866 C644.981,800.609 633.457,784.262 624.092,766.245 C621.377,761.022 621.47,755.601 621.145,750.266 C619.375,721.196 613.152,693.061 603.864,665.568 C602.096,660.333 601.796,655.146 602.066,649.853 C603.082,629.936 604.875,610.089 607.999,590.378 C608.357,588.116 609.282,586.366 611.162,584.979 C652.849,554.215 678.708,512.769 692.768,463.479 C693.997,459.17 695.485,457.464 700.296,457.324 C711.32,457.001 721.543,453.734 729.896,446.011 C740.794,453.375 748.479,463.641 754.765,474.856 C765.416,493.861 770.839,514.392 772.385,536.2 C774.419,564.883 767.563,591.607 756.415,617.58 C745.74,642.451 731.123,665.156 717.389,688.346 C713.578,694.783 710.238,701.498 705.966,707.662" fill="#D7AA61"/>
      <path d="M53.187,540.142 C55.525,541.074 57.673,540.307 59.797,540.384 C63.385,540.514 65.467,542.535 65.693,545.916 C65.902,549.04 64.273,551.36 60.966,551.973 C59.176,552.304 57.28,552.795 55.539,552.524 C50.78,551.78 48.535,553.644 47.97,558.368 C47.579,561.65 46.633,564.869 45.871,568.102 C45.296,570.543 46.252,571.108 48.464,570.434 C53.401,568.931 58.247,567.24 62.624,564.401 C66.713,561.748 70.255,562.063 72.234,565.145 C74.236,568.264 73.233,571.927 69.289,574.417 C61.747,579.177 53.608,582.499 44.614,583.066 C36.264,583.593 32.097,579.093 33.309,570.764 C34.096,565.351 35.3,559.98 36.659,554.678 C37.343,552.01 36.978,550.639 34.106,550.177 C32.481,549.915 30.883,549.361 29.333,548.779 C26.277,547.629 24.885,545.259 25.479,542.128 C26.135,538.673 28.556,537.393 32.045,537.334 C35.055,537.283 38.352,540.87 40.769,537.85 C42.604,535.557 42.909,531.993 43.733,528.951 C44.688,525.428 45.587,521.881 46.289,518.301 C47.3,513.14 46.467,512.333 41.155,513.511 C29.899,516.006 20.04,521.477 11.084,528.519 C7.792,531.107 4.921,531.772 1.836,528.903 C-0.939,526.322 -0.607,522.168 3.093,519.368 C14.996,510.361 27.707,502.883 42.94,501.149 C52.995,500.004 59.634,507.247 58.534,517.435 C57.691,525.245 54.876,532.557 53.187,540.142" fill="#FF7164"/>
    </g>
    <path d="M89.473,600.086 C89.083,603.228 87.53,605.341 84.249,605.799 C80.49,606.325 74.004,601.783 73.223,597.983 C72.572,594.816 73.858,592.383 76.799,591.124 C81.137,589.269 89.612,595.342 89.473,600.086" fill="#FF7265"/>
    <path d="M113.533,614.911 C119.033,614.801 122.829,617.592 122.762,621.374 C122.696,625.064 120.529,627.208 116.934,627.522 C112.226,627.934 107.879,624.573 108.189,620.781 C108.481,617.201 110.577,615.122 113.533,614.911" fill="#FF7467"/>
    <path d="M663.026,498.778 C652.964,521.062 638.635,540.321 621.005,557.103 C588.891,587.672 549.878,604.277 506.952,612.799 C488.306,616.501 469.451,618.278 450.492,619.268 C446.95,619.453 444.832,618.487 442.894,615.306 C426.172,587.858 405.182,564.475 376.525,549.104 C333.509,526.031 289.249,526.435 244.472,543.544 C241,544.871 239.291,544.401 237.062,541.639 C227.322,529.57 218.34,517.039 211.794,502.901 C213.656,501.365 213.657,501.364 216.548,502.051 C224.188,503.867 231.801,505.421 239.735,503.604 C245.014,502.395 250.017,500.702 254.249,497.281 C267.008,486.972 276.119,474.524 277.32,457.48 C277.487,455.101 276.999,452.821 276.616,450.546 C274.04,435.253 267.547,421.826 255.438,412.007 C241.164,400.433 221.418,400.126 204.588,412.682 C199.718,416.314 195.76,420.729 192.236,425.623 C191.151,427.131 190.438,429.39 187.801,428.894 C183.736,408.567 181.854,387.966 183.262,367.352 C187.348,307.538 204.288,252.012 241.207,203.839 C268.666,168.009 304.472,143.405 346.597,127.648 C350.328,126.252 351.579,126.925 352.772,130.711 C365.081,169.771 385.07,204.266 414.402,233.095 C427.773,246.238 442.732,257.271 459.075,266.457 C462.551,268.411 465.992,269.163 469.275,266.452 C472.394,263.878 472.487,260.472 471.116,256.904 C473.087,255.119 475.234,256.171 477.275,256.617 C495.91,260.687 514.853,261.8 533.832,262.196 C541.302,262.352 548.762,261.143 556.162,259.904 C559.603,259.327 563.012,258.44 566.538,258.541 C571.127,259.289 574.614,262.337 578.527,264.465 C585.296,268.145 587.176,267.848 591.814,261.58 C593.616,259.723 595.553,260.618 597.325,261.473 C613.438,269.245 630.668,271.19 648.248,271.328 C653.565,271.37 658.882,271.284 664.197,271.365 C666.155,271.394 668.24,271.15 669.777,272.85 C678.565,297.639 684.821,323.047 688.273,349.124 C690.751,367.837 690.139,386.583 688.425,405.311 C687.457,415.896 686.092,426.434 683.748,436.82 C681.677,439.072 681.006,436.915 680.365,435.602 C678.606,432 676.631,428.54 674.321,425.266 C666.629,414.367 656.623,406.659 643.341,404.225 C626.419,401.124 612.894,407.358 602.829,420.906 C595.472,430.808 590.479,441.912 589.71,454.416 C589.266,461.633 590.695,468.687 594.094,475.169 C596.887,480.497 600.426,485.341 604.389,489.865 C615.839,502.936 630.084,506.912 646.804,502.929 C650.703,502.001 654.472,500.691 658.263,499.428 C659.792,498.918 661.289,497.874 663.026,498.778" fill="#FEF7E9"/>
    <path d="M669.777,272.85 C650.989,272.95 632.169,273.557 613.705,268.944 C607.548,267.405 601.58,265.393 596.044,262.246 C594.541,261.391 593.143,260.523 592.08,262.75 C590.425,256.332 585.134,253.647 580.005,250.568 C549.325,232.155 525.895,206.709 508.083,175.879 C496.004,154.973 487.174,132.777 481.602,109.278 C480.57,104.926 477.703,102.745 474.292,103.432 C470.613,104.173 468.549,107.369 469.436,111.95 C471.434,122.272 474.62,132.288 478.256,142.13 C491.079,176.848 510.247,207.55 536.864,233.401 C545.11,241.41 554.158,248.506 563.588,255.102 C565.277,256.284 567.628,256.948 567.9,259.552 C553.156,262.006 538.401,264.273 523.364,263.449 C505.793,262.486 488.309,260.873 471.116,256.904 C469.64,255.019 467.613,253.872 465.573,252.73 C432.137,233.998 406.888,207.156 388.008,174.095 C376.398,153.762 367.561,132.298 362.527,109.356 C361.587,105.068 359.467,101.811 354.606,101.88 C350.007,101.945 347.624,104.924 347.246,109.191 C346.973,112.262 344.743,112.296 342.813,113.001 C304.331,127.055 270.627,148.415 242.732,178.6 C215.844,207.697 197.329,241.654 185.018,279.108 C176.95,303.651 171.416,328.775 168.922,354.52 C168.709,356.719 168.232,357.921 165.757,357.792 C152.004,357.078 141.617,362.728 134.378,375.553 C130.641,367.602 127.087,360.565 124.923,352.909 C124.136,351.25 124.155,349.381 123.563,347.672 C119.154,327.924 120.166,307.96 121.461,288.031 C122.83,266.98 127.458,246.519 133.707,226.417 C137.719,213.511 142.821,201.018 148.571,188.801 C150.922,183.806 152.487,183.467 156.994,186.727 C164.059,191.837 171.482,196.333 179.781,199.021 C191.717,202.888 203.637,203.518 215.109,197.199 C215.916,196.754 216.973,196.51 217.36,195.055 C211.237,194.118 205.335,192.551 199.824,189.713 C183.611,181.363 175.991,167.162 172.655,150.017 C172.177,147.565 172.958,145.428 174.319,143.423 C197.683,108.973 226.498,80.441 263.44,60.532 C278.719,52.298 294.167,44.607 310.976,39.992 C312.884,39.624 314.711,38.771 316.724,38.995 C318.47,38.284 320.216,37.572 321.962,36.861 C323.977,36.617 326.039,36.619 327.935,35.737 C328.868,34.825 330.089,35.036 331.224,34.862 C335.767,34.169 339.91,33.482 343.794,29.933 C347.759,26.309 353.974,26.274 359.276,25.041 C390.55,17.766 422.279,14.466 454.347,15.943 C528.65,19.365 596.571,41.34 655.125,88.178 C701.32,125.129 733.588,171.88 747.184,229.973 C757.499,274.04 759.129,318.541 747.83,362.89 C746.402,368.493 744.684,374.045 741.757,379.949 C740.837,378.253 740.148,377.081 739.55,375.864 C733.594,363.739 723.806,357.611 710.365,357.882 C705.694,357.976 704.188,357.11 703.635,351.876 C700.867,325.686 694.966,300.119 686.523,275.151 C685.687,272.681 684.352,271.809 681.714,272.113 C677.759,272.569 673.758,272.624 669.777,272.85" fill="#D7AA61"/>
    <path d="M197.991,786.723 C180.812,764.758 170.479,739.88 166.299,712.369 C161.91,683.484 163.658,655.302 175.894,628.326 C181.503,615.961 188.86,604.737 198.114,594.777 C200.005,594.483 200.88,595.828 201.381,597.182 C204.008,604.283 207.107,611.165 210.607,617.874 C210.91,618.456 210.845,619.159 210.814,619.819 C208.383,625.068 210.665,628.897 214.219,632.734 C228.383,648.03 245.949,655.973 266.591,657.239 C271.38,657.532 276.19,656.616 280.922,655.778 C285.935,654.891 286.505,650.721 287.117,646.696 C287.88,644.891 289.571,644.579 291.191,644.299 C299.177,642.919 304.775,638.604 307.775,631.013 C308.082,630.235 308.577,629.571 309.383,629.203 C317.638,630.051 325.902,630.635 334.211,630.328 C348.196,629.812 361.526,626.774 373.908,620.081 C382.09,617.776 389.82,614.56 396.362,608.929 C400.763,605.14 403.967,600.681 404.658,594.729 C404.791,593.587 404.933,592.411 405.959,591.625 C426.005,612.326 439.897,636.489 446.806,664.536 C447.712,668.217 449.121,671.834 448.957,675.733 C447.191,677.079 445.474,675.912 443.734,675.642 C436.415,674.508 429.177,674.611 422.169,677.316 C415.5,679.891 410.748,684.39 407.947,691.095 C406.642,694.221 406.439,697.992 403.318,700.222 C397.997,699.444 395.089,701.676 391.754,706.209 C387.057,712.594 379.213,715.25 371.219,713.135 C365.237,711.552 362.275,713.373 361.645,716.179 C360.892,719.531 363.284,722.491 368.706,723.639 C379.342,725.891 388.695,722.545 397.122,716.132 C399.086,714.638 400.404,712.344 402.855,711.426 C404.958,711.547 405.415,713.299 406.09,714.772 C409.794,722.85 416.081,728.378 423.794,732.346 C429.42,735.24 435.376,736.363 441.672,734.503 C443.359,734.004 445.206,733.234 446.88,734.713 C441.309,755.636 429.31,772.502 413.649,786.983 C399.219,800.326 382.485,810.127 364.774,818.422 C362.293,819.584 360.59,819.061 358.411,817.89 C339.645,807.808 321.191,809.526 304.953,822.701 C301.407,825.579 298.42,828.88 296.893,833.265 C296.351,834.82 295.715,835.739 293.792,835.758 C275.201,835.947 257.439,832.594 240.934,823.688 C240.836,821.267 243.005,820.914 244.433,819.979 C254.939,813.106 260.596,796.268 256.292,784.514 C254.036,778.354 254.036,778.354 260.44,776.858 C268.095,774.92 274.417,770.897 279.54,764.878 C281.289,762.823 282.731,760.629 283.752,758.157 C285.027,755.069 285.023,752.157 281.684,750.422 C278.476,748.756 276.208,750.502 274.672,753.186 C272.145,757.604 269,761.29 264.465,763.82 C260.77,765.882 256.806,766.798 252.954,765.523 C248.938,764.194 245.851,765.204 242.735,767.408 C240.809,767.984 239.165,767.115 237.466,766.427 C222.606,760.413 207.64,766.868 201.435,781.87 C200.68,783.696 200.828,786.316 197.991,786.723" fill="#FEF8EA"/>
    <path d="M514.581,823.598 C498.734,799.259 478.3,780.454 454.246,765.488 C451.671,763.885 451.826,762.708 452.999,760.418 C463.896,739.151 467.946,716.483 466.493,692.748 C466.354,690.487 466.762,689.372 469.179,688.368 C487.992,680.553 494.352,665.732 486.564,646.735 C484.558,641.842 484.847,638.092 487.176,633.796 C488.237,631.84 489.371,630.959 491.66,630.639 C515.455,627.316 538.676,621.678 560.972,612.605 C563.743,611.478 565.019,611.875 566.349,614.546 C585.992,654.001 600.197,695.12 605.081,739.169 C609.477,778.816 605.299,817.262 588.681,853.822 C571.646,891.299 544.089,919.685 510.436,942.587 C505.074,946.236 499.382,949.402 494.04,953.078 C491.508,954.819 490.531,954.037 489.22,951.735 C480.334,936.12 471.424,920.516 462.293,905.044 C460.46,901.939 461.286,900.682 463.899,898.773 C493.069,877.469 517.289,851.71 534.286,819.58 C542.667,803.736 548.428,786.968 551.485,769.293 C552.338,764.36 550.044,760.57 545.794,759.742 C541.224,758.853 537.715,761.397 536.761,766.664 C533.104,786.86 525.844,805.628 514.581,823.598" fill="#FFC6A5"/>
    <path d="M308.99,629.94 C307.76,638.027 302.176,642.019 295.171,644.737 C292.734,645.683 289.826,645.007 287.707,646.972 C283.826,644.017 279.58,643.42 274.71,643.93 C257.283,645.753 241.867,640.762 228.549,629.336 C227.159,628.144 225.528,627.105 224.568,625.59 C221.07,620.074 216.473,617.597 209.963,619.684 C205.348,611.698 203.2,602.539 198.113,594.778 C222.469,568.009 252.347,551.8 288.472,547.591 C334.771,542.198 373.673,556.908 405.495,590.769 C405.709,590.998 405.806,591.337 405.959,591.625 C406.507,603.39 398.842,609.664 390.029,614.935 C385.356,617.73 380.392,620.136 374.805,620.7 C371.853,609.314 371.463,609.116 360.011,612.962 C345.607,617.799 330.915,619.515 315.822,617.096 C307.642,615.786 300.177,612.748 293.32,608.145 C292.08,607.313 290.91,606.351 289.491,605.832 C286.345,604.681 283.481,605.103 281.523,607.972 C279.471,610.981 280.526,613.757 283.001,615.952 C288.566,620.888 295.184,623.915 302.165,626.295 C304.604,627.127 307.478,627.308 308.99,629.94" fill="#F1D7AC"/>
    <path d="M438.09,884.886 C441.155,880.849 443.943,877.121 445.939,872.896 C448.116,868.288 447.069,864.026 443.329,862.042 C439.261,859.884 435.085,861.358 432.576,865.98 C429.482,871.678 425.965,876.927 418.878,880.296 C420.719,876.283 422.633,873.434 423.1,869.952 C424.048,862.881 420.634,857.508 413.767,855.662 C406.393,853.679 399.628,855.698 393.038,858.792 C390.954,859.77 388.954,860.929 386.365,862.295 C386.171,858.849 386.262,855.769 385.776,852.782 C384.633,845.763 381.775,839.384 377.289,833.886 C375.115,831.222 374.835,830.243 378.445,828.462 C401.331,817.172 421.99,802.853 438.331,782.9 C443.694,776.353 443.796,776.31 450.681,780.991 C471.542,795.172 489.706,812.022 503.039,833.722 C504.833,836.642 504.647,838.435 502.555,841.078 C488.091,859.351 471.256,875.063 452.367,888.663 C449.802,890.509 447.984,890.661 445.451,888.734 C443.389,887.165 440.813,886.271 438.09,884.886" fill="#FEFC9F"/>
    <path d="M663.026,498.778 C650.314,504.086 637.345,508.493 623.491,504.004 C605.909,498.306 596.182,484.77 590.1,468.264 C588.593,464.174 587.88,459.439 588.188,455.099 C589.128,441.848 594.323,429.982 602.194,419.432 C607.322,412.559 613.87,407.3 622.268,404.46 C637.865,399.186 651.572,402.862 664.209,412.556 C672.181,418.671 677.649,426.681 681.705,435.727 C682.221,436.879 682.54,437.421 683.748,436.819 C679.48,458.355 673.268,479.241 663.026,498.778" fill="#FFD5BA"/>
    <path d="M187.801,428.894 C190.492,425.567 193.064,422.134 195.898,418.933 C205.11,408.53 216.645,402.089 230.566,401.983 C244.618,401.877 256.304,408.052 264.716,419.465 C272.524,430.057 278.051,441.894 278.626,455.138 C279.08,465.609 275.325,475.183 269.023,483.819 C259.32,497.115 247.592,506.455 230.127,505.717 C225.324,505.514 220.625,504.498 215.972,503.284 C214.626,502.933 213.299,501.737 211.795,502.902 C199.427,479.649 191.812,454.856 187.801,428.894" fill="#FFD5BA"/>
    <path d="M311.801,40.643 C269.069,55.044 231.558,77.63 201.089,111.258 C191.682,121.64 183.238,132.767 175.205,144.236 C173.426,146.774 173.625,149.169 174.177,151.775 C179.455,176.69 194.918,190.906 221.002,194.168 C217.226,198.337 212.816,200.44 208.107,201.725 C193.161,205.805 179.484,201.849 166.54,194.444 C161.656,191.65 157.07,188.332 152.053,185.061 C147.422,193.735 143.612,202.755 140.156,211.906 C125.973,249.464 119.935,288.318 122.151,328.411 C122.509,334.877 123.437,341.312 124.101,347.761 C123.754,348.082 123.406,348.099 123.056,347.767 C116.658,330.113 113.4,311.805 112.544,293.132 C109.63,229.6 128.768,173.105 168.558,123.838 C203.849,80.14 250.707,54.688 304.436,40.827 C306.199,40.373 308.004,40.084 309.79,39.718 C310.734,39.433 311.881,38.704 311.801,40.643" fill="#FEFEFE"/>
    <path d="M705.966,707.662 C710.849,695.561 718.066,684.743 724.753,673.643 C738.758,650.39 752.363,626.94 761.487,601.219 C775.869,560.679 775.432,520.671 756.875,481.419 C751.039,469.074 742.696,458.543 732.52,449.452 C731.434,448.482 729.985,447.754 729.898,446.01 C734.091,442.395 736.845,437.697 739.654,432.559 C753.526,444.628 765.147,458.183 774.399,473.699 C793.383,505.536 800.972,539.749 794.841,576.541 C790.94,599.947 779.311,619.752 764.92,638.155 C749.748,657.556 732.29,674.996 716.913,694.226 C713.309,698.734 710.613,704.002 705.966,707.662" fill="#FEFEFE"/>
    <path d="M436.387,900.607 C429.959,903.706 424.579,905.523 418.704,905.58 C413.804,905.628 410.698,907.993 410.166,912.138 C409.656,916.118 412.381,919.538 417.01,920.577 C422.431,921.794 428.146,921.545 433.419,923.51 C433.417,923.962 433.414,924.415 433.411,924.868 C429.935,924.868 426.457,924.96 422.984,924.845 C418.546,924.7 414.974,925.92 413.885,930.699 C412.849,935.245 414.715,937.775 420.077,939.875 C421.075,940.265 422.401,940.322 422.841,942.119 C417.11,944.732 411.134,945.058 405,944.261 C403.187,944.025 401.374,943.573 399.562,943.578 C393.53,943.596 390.125,949.688 393.219,954.895 C394.121,956.412 395.33,957.746 396.652,959.501 C390.67,960.177 385.67,958.379 380.864,956.232 C367.677,950.341 356.723,941.005 345.105,932.693 C343.399,931.472 343.77,930.504 344.676,929.015 C351.333,918.084 357.902,907.099 364.524,896.147 C364.944,895.454 365.457,894.623 366.136,894.311 C376.687,889.457 384.943,881.199 394.687,875.167 C398.137,873.032 401.575,870.631 406.269,870.485 C405.15,873.576 402.972,875.388 401.079,877.393 C395.259,883.556 396.67,889.644 404.852,892.015 C412.503,894.231 420.339,895.8 428.066,897.766 C430.447,898.372 432.735,899.346 436.387,900.607" fill="#FEF8EA"/>
    <path d="M257.764,846.529 C270.934,849.916 283.778,851.186 296.782,850.699 C298.325,850.641 299.187,851.464 300.08,852.522 C302.627,855.544 305.887,857.637 309.705,858.419 C312.235,858.938 312.705,860.079 312.859,862.433 C313.475,871.853 318.862,877.931 328.093,879.411 C330.344,879.772 331.141,880.719 331.868,882.536 C334.217,888.4 338.271,892.716 344.347,894.615 C347.172,895.497 346.711,896.557 345.563,898.431 C340.694,906.376 335.859,914.342 331.1,922.354 C330.023,924.166 329.229,925.093 326.896,923.803 C295.613,906.504 271.258,882.892 258.197,848.902 C258.023,848.449 258.013,847.932 257.764,846.529" fill="#FFC6A5"/>
    <path d="M446.88,734.713 C429.438,740.224 416.939,732.866 406.988,719.217 C405.359,716.982 404.423,714.242 403.166,711.735 C403.041,707.787 403.74,703.81 402.771,699.889 C405.033,697.127 405.487,693.574 406.8,690.409 C411.458,679.184 420.63,674.865 431.833,673.8 C437.605,673.252 443.439,673.42 448.957,675.733 C453.259,695.569 452.926,715.242 446.88,734.713" fill="#FFD5BA"/>
    <path d="M260.912,777.865 C259.494,779.448 257.374,778.331 255.434,779.35 C261.033,789.501 259.526,799.572 255.145,809.755 C252.259,816.464 246.77,820.17 240.935,823.688 C223.397,815.11 209.502,802.301 197.991,786.723 C201.054,779.185 204.355,771.87 211.674,767.261 C220.185,761.901 228.939,761.142 238.102,765.291 C239.607,765.972 241.023,766.894 242.781,766.738 C245.092,774.9 246.701,776.105 255.464,776.425 C257.365,776.494 259.449,776.06 260.912,777.865" fill="#FFD5BA"/>
    <path d="M410.224,986.472 C412.346,983.992 415.124,982.631 415.767,979.727 C416.128,978.097 416.61,975.781 415.433,974.918 C409.809,970.794 414.653,965.903 414.088,961.465 C413.77,958.965 415.811,959.407 417.07,959.237 C422.234,958.542 427.197,957.236 431.68,954.539 C436.54,951.616 439.753,947.538 439.387,941.548 C439.258,939.428 439.595,938.309 441.841,937.565 C445.919,936.213 448.946,933.504 450.927,929.534 C452.697,925.986 456.927,925.831 458.864,929.152 C464.559,938.912 470.163,948.726 475.808,958.516 C476.647,959.972 477.68,961.297 475.291,962.468 C458.625,970.636 443.094,981.236 424.857,986.025 C420.227,987.241 415.528,987.754 410.224,986.472" fill="#FEF8EA"/>
    <path d="M334.209,826.477 C348.18,826.442 364.434,837.401 369.587,850.33 C374.225,861.968 368.606,875.382 357.264,879.75 C349.594,882.703 345.288,879.975 344.785,871.834 C344.724,870.837 344.84,869.819 344.687,868.84 C343.796,863.15 338.836,860.489 333.557,862.761 C331.902,863.473 330.047,865.827 328.414,863.319 C327.119,861.328 327.373,858.794 328.835,856.715 C329.593,855.638 330.613,854.747 331.499,853.758 C334.342,850.585 334.659,847.146 332.017,843.817 C329.533,840.686 326.172,840.035 322.634,841.912 C320.853,842.856 319.163,843.931 317.125,844.078 C314.775,844.247 312.238,844.373 311.083,841.755 C310.08,839.482 311.299,837.646 312.856,835.946 C317.643,830.716 327.056,826.496 334.209,826.477" fill="#FEF8EA"/>
    <path d="M729.917,403.209 C729.902,410.751 729.168,417.334 726.878,423.664 C722.789,434.966 713.009,441.929 701.049,442.26 C698.925,442.319 698.171,442.077 698.655,439.599 C702.781,418.502 704.824,397.189 704.874,375.691 C704.878,373.994 705.154,373.035 707.221,372.738 C715.482,371.55 722.422,375.071 726.043,382.662 C729.273,389.434 729.819,396.71 729.917,403.209" fill="#FEF7E9"/>
    <path d="M144.058,406.528 C144.164,397.248 144.793,390.65 147.166,384.353 C150.161,376.407 156.019,372.667 164.409,372.699 C167.254,372.71 168.039,373.559 168.015,376.353 C167.89,390.989 168.998,405.559 170.973,420.055 C171.801,426.136 172.761,432.213 174.015,438.218 C174.763,441.797 173.778,442.409 170.339,441.982 C158.322,440.492 149.446,432.944 146.172,420.685 C144.712,415.223 143.967,409.614 144.058,406.528" fill="#FEF7E9"/>
    <path d="M474.803,660.628 C474.594,663.842 474.071,666.631 472.092,668.843 C470.099,671.072 467.75,673.874 464.807,673.279 C462.993,672.913 463.441,669.251 462.935,667.067 C461.321,660.104 459.391,653.243 457.163,646.449 C456.605,644.748 454.314,642.574 457.362,640.804 C460.379,639.052 463.37,638.611 466.022,641.303 C471.384,646.743 473.672,653.599 474.803,660.628" fill="#FEF7E9"/>
    <path d="M176.984,796.919 C173.607,797.059 170.716,795.779 168.476,793.432 C163.519,788.237 160.735,781.937 159.85,774.826 C159.524,772.212 160.119,769.835 162.47,768.266 C165.265,766.402 167.381,765.63 169.356,769.811 C172.821,777.147 177.218,784.013 181.93,790.649 C185.061,795.058 184.736,795.802 179.461,796.693 C178.646,796.831 177.81,796.847 176.984,796.919" fill="#FEF8EA"/>
    <path d="M311.801,40.643 C311.131,40.335 310.46,40.027 309.79,39.718 C312.041,38.89 314.193,37.118 316.725,38.995 C315.308,40.215 313.443,40.097 311.801,40.643" fill="#EAE0D2"/>
    <path d="M123.056,347.767 C123.404,347.765 123.752,347.763 124.101,347.761 C125.352,349.321 124.877,351.157 124.924,352.909 C123.416,351.517 122.721,349.829 123.056,347.767" fill="#F6F1EB"/>
    <path d="M327.935,35.737 C326.102,36.953 324.21,37.857 321.962,36.861 C323.811,35.736 325.856,35.647 327.935,35.737" fill="#C9AF8C"/>
    <path d="M567.9,259.552 C515.192,224.339 483.872,174.541 468.528,113.845 C467.736,110.714 467.121,107.586 469.382,104.799 C471.313,102.418 473.895,101.265 476.923,102.02 C480.311,102.866 482.124,105.257 482.88,108.679 C488.94,136.113 499.968,161.496 515.116,185.065 C533.339,213.417 556.753,236.455 586.365,252.857 C590.519,255.158 592.725,257.977 592.079,262.752 C589.232,268.483 585.759,269.726 580.205,266.728 C576.029,264.474 571.996,261.954 567.9,259.552" fill="#6E4100"/>
    <path d="M289.09,397.212 C289.47,395.211 289.721,391.828 290.806,388.737 C291.947,385.49 291.691,383.602 288.605,381.441 C283.321,377.741 280.057,372.289 277.805,366.227 C276.477,362.649 277.38,359.824 280.675,358.289 C284.261,356.618 287.246,358.027 288.884,361.57 C290.639,365.367 292.44,369.07 295.699,371.85 C297.668,373.528 299.162,373.964 301.523,371.815 C308.568,365.401 317.036,362.235 326.637,362.805 C342.367,363.739 351.589,375.125 354.581,387.804 C355.47,391.57 353.462,394.598 349.648,395.988 C345.766,397.401 342.869,395.943 340.705,392.671 C340.347,392.13 340.155,391.475 339.914,390.861 C336.014,380.934 330.91,377.002 322.968,377.815 C314.201,378.714 306.509,385.786 304.787,394.567 C304.5,396.034 304.262,397.517 304.129,399.005 C303.625,404.603 300.892,407.475 296.28,407.174 C292.017,406.896 289.192,403.482 289.09,397.212" fill="#6E4100"/>
    <path d="M591.74,398.047 C591.711,403.726 588.851,407.198 584.193,407.207 C579.716,407.216 576.979,404.064 576.749,398.483 C576.438,390.941 573.111,385.061 566.826,381.022 C556.386,374.312 545.951,377.885 541.576,389.494 C541.458,389.806 541.32,390.109 541.202,390.42 C539.294,395.445 535.971,397.473 531.778,396.168 C527.41,394.81 524.813,390.861 527.04,386.313 C530.093,380.08 528.56,375.836 524.151,371.325 C521.87,368.991 520.567,365.732 519.73,362.483 C518.884,359.2 519.742,356.302 523.046,355.076 C526.393,353.835 529.305,354.88 530.908,358.337 C532.308,361.354 533.694,364.355 535.786,366.995 C537.046,368.584 538.08,368.863 539.882,367.605 C559.177,354.137 591.22,369.28 591.74,398.047" fill="#6E4100"/>
    <path d="M434.441,535.278 C417.284,535.209 403.621,526.729 398.249,512.816 C396.42,508.078 397.376,504.362 400.778,502.983 C404.447,501.497 407.298,503.164 409.401,508.026 C414.006,518.675 423.262,523.85 436.576,523.221 C448.675,522.65 456.369,516.971 459.9,505.748 C461.133,501.831 463.316,499.665 467.551,500.6 C471.298,501.426 472.678,504.699 471.47,509.357 C467.328,525.331 453.012,535.353 434.441,535.278" fill="#6E4100"/>
    <path d="M325.535,182.634 C332.852,182.228 338.35,185.538 342.573,191.194 C345.332,194.889 345.084,198.985 341.988,200.879 C338.398,203.076 335.288,202.189 333.027,198.67 C330.185,194.247 326.018,193.777 321.625,195.238 C315.434,197.296 310.483,201.005 307.829,207.292 C306.335,210.831 303.633,212.607 299.873,211.017 C295.966,209.364 295.272,206.308 296.78,202.375 C300.924,191.567 313.757,182.668 325.535,182.634" fill="#6E4100"/>
    <path d="M427.616,394.759 C427.7,392 428.961,389.853 431.528,388.972 C433.93,388.148 436.673,388.046 438.443,390.244 C440.717,393.068 442.886,396.062 444.55,399.268 C445.828,401.729 445.41,404.519 443.21,406.583 C441.261,408.411 438.98,409.052 436.361,407.977 C433.425,406.771 427.529,397.923 427.616,394.759" fill="#6F4300"/>
    <path d="M308.99,629.94 C300.036,627.304 291.345,624.1 283.771,618.43 C278.835,614.736 277.569,610.434 280.347,606.611 C283.152,602.751 287.67,602.647 292.596,606.114 C308.933,617.613 327.117,618.7 346.02,615.347 C351.749,614.331 357.34,612.681 362.751,610.552 C366.317,609.149 369.695,608.162 372.999,611.023 C376.177,613.776 375.56,617.221 374.805,620.699 C367.842,626.34 359.22,627.702 350.916,629.655 C337.008,632.925 322.986,632.737 308.99,629.94" fill="#6E4100"/>
    <path d="M209.963,619.684 C215.41,616.117 218.467,616.506 222.445,621.12 C237.084,638.101 255.443,645.6 277.793,642.436 C282.329,641.793 285.546,642.956 287.707,646.973 C288.175,653.735 286.434,656.416 279.953,657.321 C251.959,661.231 229.024,651.772 210.633,630.628 C207.614,627.157 207.412,623.502 209.963,619.684" fill="#6E4100"/>
    <path d="M402.771,699.889 C406.149,703.73 405.064,707.72 403.166,711.736 C395.435,721.802 384.842,725.574 372.572,725.548 C369.189,725.541 365.949,724.636 363.126,722.762 C360.129,720.772 359.037,717.923 360.651,714.543 C362.233,711.23 365.196,709.694 368.501,711.142 C375.887,714.378 382.124,711.546 388.339,708.143 C389.905,707.285 391.215,706.113 391.986,704.241 C394.434,698.294 396.803,697.425 402.771,699.889" fill="#6E4100"/>
    <path d="M260.912,777.865 C256.46,777.896 251.966,778.6 247.682,776.595 C243.381,774.582 241.072,771.686 242.781,766.738 C244.79,763.853 247.384,762.606 250.926,763.631 C260.106,766.287 268.593,762.499 272.891,753.561 C274.402,750.419 276.228,748.216 279.911,748.4 C284.811,748.644 287.356,753.197 285.115,758.283 C280.435,768.901 271.928,774.98 260.912,777.865" fill="#6E4100"/>
    <path d="M315.423,744.991 C315.725,740.209 317.626,736.288 322.014,734.065 C325.865,732.115 329.742,732.57 333.308,734.97 C335.439,736.405 336.519,738.375 335.263,740.926 C334.052,743.384 331.909,744.344 329.51,743.075 C325.955,741.194 324.749,742.568 324.392,746.001 C324.088,748.938 322.286,750.628 319.407,750.34 C316.451,750.045 315.312,747.856 315.423,744.991" fill="#6F4400"/>
    <path d="M348.162,788.701 C349.435,788.66 351.287,789.337 353.047,790.261 C355.659,791.632 357.276,793.653 355.96,796.672 C354.645,799.688 352.223,800.012 349.388,798.708 C348.519,798.308 347.551,797.86 346.634,797.873 C343.417,797.92 341.428,796.468 341.526,793.262 C341.636,789.69 344.274,788.74 348.162,788.701" fill="#704501"/>
  </g>
</svg>
